<svg class="main-logo" xmlns="http://www.w3.org/2000/svg" xmlns:xlink="http://www.w3.org/1999/xlink" x="0px" y="0px" viewBox="0 0 130.1 43.6" style="enable-background:new 0 0 130.1 43.6;" xml:space="preserve">
	<path d="M2.7,34.7l2.5,5.4l2.5-5.4h2.3v9.1H8.3v-6.9l-2.6,5.9H4.6L2,36.7v7.1H0.3v-9.1H2.7z M34.2,34.7h5.9v1.4h-4.2v2.4h3.9V40 h-3.9v2.4h4.2v1.4h-5.9V34.7z M67.1,34.7c1.4,0,2.5,0.4,3.3,1.2c0.9,0.8,1.3,1.9,1.3,3.3c0,1.4-0.4,2.5-1.3,3.3 c-0.8,0.8-2,1.2-3.3,1.2h-3v-9.1H67.1z M65.8,42.3h1.3c0.9,0,1.6-0.3,2.1-0.9c0.5-0.6,0.8-1.3,0.8-2.2c0-0.9-0.3-1.6-0.8-2.2 c-0.5-0.6-1.2-0.9-2.1-0.9h-1.3V42.3z M95.4,34.7h1.7v9.1h-1.7V34.7z M123.5,34.7h2.1l3,9.1h-1.8l-0.6-2h-3.4l-0.6,2h-1.8 L123.5,34.7z M123.2,40.6h2.5l-1.3-3.9L123.2,40.6z"></path>
	<path d="M54,0h6.6v26.8H54V0z M16.2,12.5c0,0,3.8-3.4,3.8-8.3C20,2.1,20,0,20,0h-6.8c0,0,0.4,10.2-6.6,10.2V0H0v26.8h6.6V16.6 c0,0,0.2,0,0.9,0s8.1,0.2,8.1,10.2h6.6c0,0,0-1.1,0-3C22.3,21.9,21.7,16.2,16.2,12.5z M50.4,13.4v13.4H37c-7.4,0-13.4-6-13.4-13.4 S29.6,0,37,0S50.4,6,50.4,13.4z M43.6,13.4c0-3.5-2.9-6.4-6.4-6.4s-6.4,2.9-6.4,6.4c0,3.5,2.9,6.4,6.4,6.4h6.4V13.4z M105,13.4 c0,7.4-6,13.4-13.4,13.4s-13.4-6-13.4-13.4S84.2,0,91.6,0S105,6,105,13.4z M98,13.4C98,9.9,95.1,7,91.6,7s-6.4,2.9-6.4,6.4 c0,3.5,2.9,6.4,6.4,6.4S98,16.9,98,13.4z M64.4,13.4v13.4H71V25V13.4c0-3.5,2.7-6.4,6.1-6.8V0C70,0.4,64.4,6.2,64.4,13.4z M130.1,18.6c0-4-2.9-7.4-6.7-8.1c0,0-7.6-0.1-7.6-0.1c-1,0-1.9-0.8-1.9-1.9c0-1,0.8-1.9,1.9-1.9h7V0H115v0 c-4.3,0.2-7.7,3.8-7.7,8.2c0,4,2.9,7.4,6.7,8.1c0,0,7.6,0.1,7.6,0.1c1,0,1.9,0.8,1.9,1.9c0,1-0.8,1.9-1.9,1.9h-11.1h-2.3v6.6H122v0 C126.5,26.8,130.1,23.1,130.1,18.6z"></path>
</svg>